<svg width="39" height="39" viewBox="0 0 39 39" fill="none" xmlns="http://www.w3.org/2000/svg">
<path d="M19.5 11.5874C18.4609 11.5874 17.432 11.792 16.472 12.1897C15.512 12.5873 14.6397 13.1702 13.905 13.9049C13.1702 14.6397 12.5874 15.512 12.1897 16.472C11.7921 17.432 11.5874 18.4609 11.5874 19.5C11.5874 20.5391 11.7921 21.568 12.1897 22.528C12.5874 23.488 13.1702 24.3603 13.905 25.0951C14.6397 25.8298 15.512 26.4127 16.472 26.8103C17.432 27.2079 18.4609 27.4126 19.5 27.4126C21.5986 27.4126 23.6112 26.579 25.0951 25.0951C26.579 23.6112 27.4126 21.5985 27.4126 19.5C27.4126 17.4014 26.579 15.3888 25.0951 13.9049C23.6112 12.421 21.5986 11.5874 19.5 11.5874ZM14.0251 19.5C14.0251 18.0479 14.6019 16.6554 15.6286 15.6286C16.6554 14.6018 18.048 14.025 19.5 14.025C20.9521 14.025 22.3447 14.6018 23.3714 15.6286C24.3982 16.6554 24.975 18.0479 24.975 19.5C24.975 20.952 24.3982 22.3446 23.3714 23.3714C22.3447 24.3981 20.9521 24.975 19.5 24.975C18.048 24.975 16.6554 24.3981 15.6286 23.3714C14.6019 22.3446 14.0251 20.952 14.0251 19.5Z" fill="black" fill-opacity="0.9"/>
<path d="M23.878 3.27255C22.5934 -1.09085 16.4066 -1.09085 15.122 3.27255L14.8928 4.05016C14.8031 4.35475 14.6464 4.6354 14.4341 4.87155C14.2218 5.10769 13.9594 5.29334 13.6661 5.41488C13.3727 5.53643 13.0559 5.59079 12.7388 5.57398C12.4217 5.55717 12.1124 5.46962 11.8336 5.31774L11.1218 4.92771C7.12404 2.75333 2.75333 7.12648 4.93015 11.1218L5.31774 11.8336C5.46962 12.1124 5.55717 12.4217 5.57398 12.7388C5.59079 13.0559 5.53643 13.3727 5.41488 13.6661C5.29334 13.9594 5.10769 14.2218 4.87155 14.4341C4.6354 14.6464 4.35475 14.8031 4.05016 14.8928L3.27255 15.122C-1.09085 16.4066 -1.09085 22.5934 3.27255 23.878L4.05016 24.1072C4.35475 24.1969 4.6354 24.3536 4.87155 24.5659C5.10769 24.7782 5.29334 25.0406 5.41488 25.3339C5.53643 25.6273 5.59079 25.9441 5.57398 26.2612C5.55717 26.5783 5.46962 26.8876 5.31774 27.1664L4.92771 27.8782C2.75333 31.876 7.12404 36.2491 11.1218 34.0699L11.8336 33.6823C12.1124 33.5304 12.4217 33.4428 12.7388 33.426C13.0559 33.4092 13.3727 33.4636 13.6661 33.5851C13.9594 33.7067 14.2218 33.8923 14.4341 34.1285C14.6464 34.3646 14.8031 34.6453 14.8928 34.9498L15.122 35.7275C16.4066 40.0909 22.5934 40.0909 23.878 35.7275L24.1072 34.9498C24.1969 34.6453 24.3536 34.3646 24.5659 34.1285C24.7782 33.8923 25.0406 33.7067 25.3339 33.5851C25.6273 33.4636 25.9441 33.4092 26.2612 33.426C26.5783 33.4428 26.8876 33.5304 27.1664 33.6823L27.8782 34.0723C31.876 36.2491 36.2491 31.8735 34.0699 27.8782L33.6823 27.1664C33.5304 26.8876 33.4428 26.5783 33.426 26.2612C33.4092 25.9441 33.4636 25.6273 33.5851 25.3339C33.7067 25.0406 33.8923 24.7782 34.1285 24.5659C34.3646 24.3536 34.6453 24.1969 34.9498 24.1072L35.7275 23.878C40.0909 22.5934 40.0909 16.4066 35.7275 15.122L34.9498 14.8928C34.6453 14.8031 34.3646 14.6464 34.1285 14.4341C33.8923 14.2218 33.7067 13.9594 33.5851 13.6661C33.4636 13.3727 33.4092 13.0559 33.426 12.7388C33.4428 12.4217 33.5304 12.1124 33.6823 11.8336L34.0723 11.1218C36.2491 7.12404 31.8735 2.75333 27.8782 4.93015L27.1664 5.31774C26.8876 5.46962 26.5783 5.55717 26.2612 5.57398C25.9441 5.59079 25.6273 5.53643 25.3339 5.41488C25.0406 5.29334 24.7782 5.10769 24.5659 4.87155C24.3536 4.6354 24.1969 4.35475 24.1072 4.05016L23.878 3.27255ZM17.4597 3.9624C18.0593 1.92696 20.9407 1.92696 21.5403 3.9624L21.7695 4.74002C21.9621 5.39351 22.2985 5.99562 22.7541 6.50219C23.2097 7.00876 23.7728 7.40696 24.4023 7.66759C25.0318 7.92821 25.7116 8.04466 26.3919 8.00839C27.0723 7.97213 27.7359 7.78407 28.3341 7.458L29.0434 7.06797C30.9058 6.05635 32.9437 8.09179 31.9296 9.95659L31.542 10.6684C31.2164 11.2667 31.0288 11.9302 30.993 12.6104C30.9571 13.2905 31.0738 13.9701 31.3347 14.5993C31.5955 15.2285 31.9938 15.7914 32.5004 16.2467C33.007 16.7019 33.6091 17.0381 34.2624 17.2305L35.0376 17.4597C37.073 18.0593 37.073 20.9407 35.0376 21.5403L34.26 21.7695C33.6065 21.9621 33.0044 22.2985 32.4978 22.7541C31.9912 23.2097 31.593 23.7728 31.3324 24.4023C31.0718 25.0318 30.9553 25.7116 30.9916 26.3919C31.0279 27.0723 31.2159 27.7359 31.542 28.3341L31.932 29.0434C32.9437 30.9058 30.9082 32.9437 29.0434 31.9296L28.3341 31.542C27.7357 31.216 27.0719 31.028 26.3915 30.9919C25.711 30.9558 25.0311 31.0724 24.4016 31.3333C23.7721 31.5942 23.2089 31.9926 22.7535 32.4995C22.298 33.0063 21.9618 33.6087 21.7695 34.2624L21.5403 35.0376C20.9407 37.073 18.0593 37.073 17.4597 35.0376L17.2305 34.26C17.0378 33.6068 16.7015 33.0051 16.2461 32.4987C15.7906 31.9924 15.2277 31.5944 14.5986 31.3338C13.9694 31.0732 13.2899 30.9566 12.6099 30.9927C11.9299 31.0287 11.2665 31.2164 10.6684 31.542L9.95659 31.932C8.09422 32.9437 6.05635 30.9082 7.07041 29.0434L7.458 28.3341C7.78452 27.7358 7.97295 27.0719 8.00946 26.3913C8.04596 25.7107 7.92962 25.0305 7.66896 24.4008C7.4083 23.771 7.00994 23.2075 6.50312 22.7518C5.99629 22.296 5.39385 21.9596 4.74002 21.767L3.9624 21.5379C1.92696 20.9382 1.92696 18.0569 3.9624 17.4572L4.74002 17.2281C5.39283 17.0353 5.99428 16.699 6.50035 16.2438C7.00641 15.7885 7.40428 15.2259 7.66484 14.597C7.9254 13.9682 8.04205 13.289 8.00626 12.6093C7.97048 11.9295 7.78315 11.2664 7.458 10.6684L7.06797 9.95659C6.05635 8.09422 8.09179 6.05635 9.95659 7.07041L10.6684 7.458C11.2665 7.78361 11.9299 7.9713 12.6099 8.00733C13.2899 8.04336 13.9694 7.92681 14.5986 7.66621C15.2277 7.40562 15.7906 7.00759 16.2461 6.50127C16.7015 5.99495 17.0378 5.39317 17.2305 4.74002L17.4597 3.9624Z" fill="black" fill-opacity="0.9"/>
</svg>
