<svg width="22" height="22" viewBox="0 0 22 22" fill="none" xmlns="http://www.w3.org/2000/svg">
<path d="M13 2.269C13 1.568 12.432 1 11.731 1H10.27C9.568 1 9 1.568 9 2.269C9 2.847 8.604 3.343 8.065 3.555C7.98 3.589 7.895 3.625 7.812 3.661C7.281 3.891 6.65 3.821 6.24 3.412C6.00204 3.17421 5.6794 3.04064 5.343 3.04064C5.0066 3.04064 4.68396 3.17421 4.446 3.412L3.412 4.446C3.17421 4.68396 3.04064 5.0066 3.04064 5.343C3.04064 5.6794 3.17421 6.00204 3.412 6.24C3.822 6.65 3.892 7.28 3.66 7.812C3.62355 7.89572 3.58854 7.98007 3.555 8.065C3.343 8.604 2.847 9 2.269 9C1.568 9 1 9.568 1 10.269V11.731C1 12.432 1.568 13 2.269 13C2.847 13 3.343 13.396 3.555 13.935C3.589 14.02 3.625 14.105 3.66 14.188C3.891 14.719 3.821 15.35 3.412 15.76C3.17421 15.998 3.04064 16.3206 3.04064 16.657C3.04064 16.9934 3.17421 17.316 3.412 17.554L4.446 18.588C4.68396 18.8258 5.0066 18.9594 5.343 18.9594C5.6794 18.9594 6.00204 18.8258 6.24 18.588C6.65 18.178 7.28 18.108 7.812 18.339C7.895 18.376 7.98 18.411 8.065 18.445C8.604 18.657 9 19.153 9 19.731C9 20.432 9.568 21 10.269 21H11.731C12.432 21 13 20.432 13 19.731C13 19.153 13.396 18.657 13.935 18.444C14.02 18.411 14.105 18.376 14.188 18.34C14.719 18.108 15.35 18.179 15.759 18.588C15.8768 18.7059 16.0168 18.7994 16.1708 18.8632C16.3248 18.927 16.4898 18.9599 16.6565 18.9599C16.8232 18.9599 16.9882 18.927 17.1422 18.8632C17.2962 18.7994 17.4362 18.7059 17.554 18.588L18.588 17.554C18.8258 17.316 18.9594 16.9934 18.9594 16.657C18.9594 16.3206 18.8258 15.998 18.588 15.76C18.178 15.35 18.108 14.72 18.339 14.188C18.376 14.105 18.411 14.02 18.445 13.935C18.657 13.396 19.153 13 19.731 13C20.432 13 21 12.432 21 11.731V10.27C21 9.569 20.432 9.001 19.731 9.001C19.153 9.001 18.657 8.605 18.444 8.066C18.4105 7.98106 18.3755 7.89671 18.339 7.813C18.109 7.282 18.179 6.651 18.588 6.241C18.8258 6.00304 18.9594 5.6804 18.9594 5.344C18.9594 5.0076 18.8258 4.68496 18.588 4.447L17.554 3.413C17.316 3.17521 16.9934 3.04164 16.657 3.04164C16.3206 3.04164 15.998 3.17521 15.76 3.413C15.35 3.823 14.72 3.893 14.188 3.662C14.1043 3.62521 14.0199 3.58987 13.935 3.556C13.396 3.343 13 2.847 13 2.27V2.269Z" stroke="#09FDB5" stroke-width="2"/>
<path d="M15 11C15 12.0609 14.5786 13.0783 13.8284 13.8284C13.0783 14.5786 12.0609 15 11 15C9.93913 15 8.92172 14.5786 8.17157 13.8284C7.42143 13.0783 7 12.0609 7 11C7 9.93913 7.42143 8.92172 8.17157 8.17157C8.92172 7.42143 9.93913 7 11 7C12.0609 7 13.0783 7.42143 13.8284 8.17157C14.5786 8.92172 15 9.93913 15 11V11Z" stroke="#09FDB5" stroke-width="2"/>
</svg>
