<svg width="90" height="82" viewBox="0 0 45 41" fill="none" xmlns="http://www.w3.org/2000/svg">
<path d="M6.42856 5.62316H38.5714C38.9469 5.62298 39.322 5.6468 39.6944 5.69448C39.5682 4.80831 39.2638 3.95689 38.7996 3.19154C38.3354 2.4262 37.721 1.76278 36.9935 1.24129C36.266 0.7198 35.4404 0.35104 34.5665 0.157243C33.6926 -0.0365548 32.7886 -0.0513756 31.9088 0.113674L5.47432 4.62673H5.44418C3.78488 4.94404 2.30931 5.88284 1.31885 7.2514C2.81108 6.19 4.59736 5.6208 6.42856 5.62316V5.62316Z" fill="black"/>
<path d="M6.42856 5.62316H38.5714C38.9469 5.62298 39.322 5.6468 39.6944 5.69448C39.5682 4.80831 39.2638 3.95689 38.7996 3.19154C38.3354 2.4262 37.721 1.76278 36.9935 1.24129C36.266 0.7198 35.4404 0.35104 34.5665 0.157243C33.6926 -0.0365548 32.7886 -0.0513756 31.9088 0.113674L5.47432 4.62673H5.44418C3.78488 4.94404 2.30931 5.88284 1.31885 7.2514C2.81108 6.19 4.59736 5.6208 6.42856 5.62316V5.62316Z" fill="url(#paint0_linear_15_163)" fill-opacity="0.2"/>
<path d="M38.5714 8.03394H6.42857C4.72418 8.0358 3.09013 8.71369 1.88494 9.91888C0.679753 11.1241 0.00186113 12.7581 0 14.4625V33.7482C0.00186113 35.4526 0.679753 37.0867 1.88494 38.2919C3.09013 39.497 4.72418 40.1749 6.42857 40.1768H38.5714C40.2758 40.1749 41.9099 39.497 43.1151 38.2919C44.3202 37.0867 44.9981 35.4526 45 33.7482V14.4625C44.9981 12.7581 44.3202 11.1241 43.1151 9.91888C41.9099 8.71369 40.2758 8.0358 38.5714 8.03394V8.03394ZM33.8002 27.3196C33.1645 27.3196 32.543 27.1311 32.0145 26.7779C31.4859 26.4248 31.0739 25.9228 30.8306 25.3354C30.5873 24.7481 30.5237 24.1018 30.6477 23.4783C30.7717 22.8548 31.0779 22.282 31.5274 21.8325C31.9769 21.383 32.5496 21.0769 33.1731 20.9528C33.7967 20.8288 34.4429 20.8925 35.0303 21.1358C35.6176 21.379 36.1196 21.791 36.4728 22.3196C36.826 22.8482 37.0145 23.4696 37.0145 24.1054C37.0145 24.9578 36.6759 25.7754 36.0731 26.3782C35.4703 26.981 34.6527 27.3196 33.8002 27.3196Z" fill="black"/>
<path d="M38.5714 8.03394H6.42857C4.72418 8.0358 3.09013 8.71369 1.88494 9.91888C0.679753 11.1241 0.00186113 12.7581 0 14.4625V33.7482C0.00186113 35.4526 0.679753 37.0867 1.88494 38.2919C3.09013 39.497 4.72418 40.1749 6.42857 40.1768H38.5714C40.2758 40.1749 41.9099 39.497 43.1151 38.2919C44.3202 37.0867 44.9981 35.4526 45 33.7482V14.4625C44.9981 12.7581 44.3202 11.1241 43.1151 9.91888C41.9099 8.71369 40.2758 8.0358 38.5714 8.03394V8.03394ZM33.8002 27.3196C33.1645 27.3196 32.543 27.1311 32.0145 26.7779C31.4859 26.4248 31.0739 25.9228 30.8306 25.3354C30.5873 24.7481 30.5237 24.1018 30.6477 23.4783C30.7717 22.8548 31.0779 22.282 31.5274 21.8325C31.9769 21.383 32.5496 21.0769 33.1731 20.9528C33.7967 20.8288 34.4429 20.8925 35.0303 21.1358C35.6176 21.379 36.1196 21.791 36.4728 22.3196C36.826 22.8482 37.0145 23.4696 37.0145 24.1054C37.0145 24.9578 36.6759 25.7754 36.0731 26.3782C35.4703 26.981 34.6527 27.3196 33.8002 27.3196Z" fill="url(#paint1_linear_15_163)" fill-opacity="0.2"/>
<path d="M0.050293 21.2426V11.2482C0.050293 9.07151 1.25565 5.42229 5.43924 4.63178C8.99003 3.96582 12.5057 3.96582 12.5057 3.96582C12.5057 3.96582 14.8159 5.57296 12.9074 5.57296C10.999 5.57296 11.0492 8.0339 12.9074 8.0339C14.7657 8.0339 12.9074 10.3944 12.9074 10.3944L5.42418 18.8821L0.050293 21.2426Z" fill="black"/>
<path d="M0.050293 21.2426V11.2482C0.050293 9.07151 1.25565 5.42229 5.43924 4.63178C8.99003 3.96582 12.5057 3.96582 12.5057 3.96582C12.5057 3.96582 14.8159 5.57296 12.9074 5.57296C10.999 5.57296 11.0492 8.0339 12.9074 8.0339C14.7657 8.0339 12.9074 10.3944 12.9074 10.3944L5.42418 18.8821L0.050293 21.2426Z" fill="url(#paint2_linear_15_163)" fill-opacity="0.2"/>
<defs>
<linearGradient id="paint0_linear_15_163" x1="6.17975" y1="-14.733" x2="-22.1414" y2="13.9904" gradientUnits="userSpaceOnUse">
<stop stop-color="#29FFC6"/>
<stop offset="1" stop-color="white" stop-opacity="0"/>
</linearGradient>
<linearGradient id="paint1_linear_15_163" x1="5.7" y1="-57.2722" x2="-57.1461" y2="-40.4106" gradientUnits="userSpaceOnUse">
<stop stop-color="#29FFC6"/>
<stop offset="1" stop-color="white" stop-opacity="0"/>
</linearGradient>
<linearGradient id="paint2_linear_15_163" x1="1.78348" y1="-31.1362" x2="-18.2403" y2="-28.097" gradientUnits="userSpaceOnUse">
<stop stop-color="#29FFC6"/>
<stop offset="1" stop-color="white" stop-opacity="0"/>
</linearGradient>
</defs>
</svg>
