<?xml version="1.0" standalone="no"?>
<!DOCTYPE svg PUBLIC "-//W3C//DTD SVG 20010904//EN"
 "http://www.w3.org/TR/2001/REC-SVG-20010904/DTD/svg10.dtd">
<svg version="1.0" xmlns="http://www.w3.org/2000/svg"
 width="215.000000pt" height="234.000000pt" viewBox="0 0 215.000000 234.000000"
 preserveAspectRatio="xMidYMid meet">

<g transform="translate(0.000000,234.000000) scale(0.100000,-0.100000)"
fill="#ffffff" stroke="none">
<path d="M1685 2324 c-11 -9 -43 -27 -71 -40 -47 -22 -68 -24 -285 -32 -233
-8 -234 -8 -299 -38 -36 -17 -93 -52 -126 -77 -57 -43 -77 -64 -157 -155 -24
-29 -33 -32 -81 -32 -32 0 -58 -5 -65 -13 -7 -9 -12 -94 -13 -243 l-3 -229
-107 -3 -108 -3 -92 -102 c-51 -57 -133 -150 -183 -207 l-90 -103 0 -508 c0
-404 3 -511 13 -521 19 -19 2095 -19 2114 0 10 10 14 113 16 475 2 254 1 485
-3 512 -6 48 -15 60 -181 250 l-175 200 -162 5 -162 5 -3 161 -2 161 32 16
c18 8 69 29 113 47 119 47 388 195 407 224 14 21 8 55 -11 66 -24 12 -37 8
-131 -48 -103 -61 -255 -136 -348 -173 -62 -25 -278 -145 -388 -216 -19 -12
-24 -12 -38 2 -9 9 -16 22 -16 29 0 7 53 50 118 96 177 125 190 140 154 173
-27 24 -44 21 -101 -18 l-51 -35 -177 0 -178 1 71 68 c45 43 97 81 140 102
l68 34 236 5 c232 5 236 6 292 33 59 29 118 77 118 96 0 15 -37 51 -52 51 -7
0 -22 -8 -33 -16z m-654 -498 c-27 -27 -35 -45 -39 -84 -5 -58 7 -86 51 -112
60 -37 110 -28 221 40 54 33 100 60 102 60 2 0 4 -103 4 -230 l0 -230 -345 0
-345 0 0 288 c0 159 3 292 7 295 3 4 90 7 192 7 l185 0 -33 -34z m-441 -506
l0 -50 -34 0 c-58 0 -84 -44 -49 -82 15 -17 44 -18 488 -18 542 0 621 4 636
32 8 14 6 26 -6 44 -14 22 -22 24 -91 24 l-75 0 3 48 3 47 136 3 136 3 127
-146 126 -145 -910 0 c-500 0 -910 2 -910 6 0 3 55 68 122 144 l123 140 88 0
87 0 0 -50z m1458 -782 l-3 -443 -970 0 -970 0 -3 443 -2 442 975 0 975 0 -2
-442z"/>
</g>
</svg>
